<svg xmlns="http://www.w3.org/2000/svg" xmlns:xlink="http://www.w3.org/1999/xlink" width="278.86" height="114.863" viewBox="0 0 278.86 114.863"><defs><style>.a,.b{fill:#dd0e00;}.b{opacity:0.09;}.c{clip-path:url(#a);}.d{fill:#f8bcb8;}</style><clipPath id="a"><rect class="a" width="278.861" height="114.863"/></clipPath></defs><g transform="translate(-659 -301.325)"><path class="b" d="M20522-3334h-19a9.269,9.269,0,0,1,9.5-9,9.716,9.716,0,0,1,6.719,2.635A8.707,8.707,0,0,1,20522-3334Z" transform="translate(-19646 3749)"/><path class="b" d="M-19602.582,3673.376l.625,8.39s1.471,7.426,1.756,8.163,2.211,9.24,2.211,9.24h16.949l3.006-11.507s1.359-10.714,1.529-10.714a25.051,25.051,0,0,0,0-3.571Z" transform="translate(20499 -3284)"/><path class="b" d="M-19816.893,3656.893v42.226h16.064v-29.035h-8.475v-13.191Z" transform="translate(20499 -3284)"/><path class="b" d="M5,0H150a5,5,0,0,1,5,5V84a0,0,0,0,1,0,0H0a0,0,0,0,1,0,0V5A5,5,0,0,1,5,0Z" transform="translate(721 303)"/><g transform="translate(659 301.325)"><g class="c"><path class="a" d="M214.246,140.053a.994.994,0,0,0,.324.22,1.044,1.044,0,0,0,.375.071.979.979,0,0,0,.7-.291,1.058,1.058,0,0,0,.214-.317.951.951,0,0,0,.078-.375.937.937,0,0,0-.019-.194.867.867,0,0,0-.058-.188,1.488,1.488,0,0,0-.09-.168,1.451,1.451,0,0,0-.124-.149.854.854,0,0,0-.148-.123.882.882,0,0,0-.175-.091.817.817,0,0,0-.181-.058.992.992,0,0,0-.893.272,1.364,1.364,0,0,0-.123.149,1.4,1.4,0,0,0-.091.168,1.723,1.723,0,0,0-.052.188.982.982,0,0,0-.019.194,1.087,1.087,0,0,0,.071.375,1.072,1.072,0,0,0,.214.317" transform="translate(-75.514 -48.836)"/><path class="a" d="M277.874,112.89H260.013c1.171-4.005,4.594-16.408,4.594-24.609a.986.986,0,0,0-.986-.987h-3.985l1.878-21.279a.957.957,0,0,0-1.869-.364l-5.228,17.122-.465-9.232a.958.958,0,0,0-.864-.9.948.948,0,0,0-1.021.724l-2.988,12.131-7.8-15.941a.957.957,0,0,0-1.8.569l2.7,17.173h-4.814a.986.986,0,0,0-.986.987c0,8.2,3.423,20.6,4.594,24.609H218.284c-.548-4.917-5.145-8.768-10.718-8.768s-10.17,3.851-10.717,8.768H161A16.55,16.55,0,0,1,151.992,98.1V96.993H211.26a7.087,7.087,0,0,0,7.079-7.079V7.079A7.087,7.087,0,0,0,211.26,0H67.6a7.087,7.087,0,0,0-7.079,7.079V89.914A7.087,7.087,0,0,0,67.6,96.993h59.267V98.1a16.549,16.549,0,0,1-9.011,14.785h-62.4a.99.99,0,0,0-.028-.263L47.5,82.326a.985.985,0,0,0-1.2-.7l-2.534.663a.983.983,0,0,0-.945-.718H38.957a.986.986,0,0,0-.987.986v1.616H31.648V71.758a.987.987,0,0,0-.987-.987H23.938V68a.987.987,0,0,0-.987-.987H15.24a.987.987,0,0,0-.987.987V112.89H.987a.986.986,0,1,0,0,1.973H277.874a.986.986,0,1,0,0-1.973m-20.16-25.6h-2.675L258.8,74.968Zm-5.345-7.15.36,7.15h-2.121Zm-10.02-4.049,5.483,11.2H244.11Zm20.269,13.172c-.028.857-.092,1.759-.182,2.687H238.544c-.09-.929-.155-1.831-.182-2.687ZM206.58,106.148V107.8a.986.986,0,0,0,1.973,0v-1.655c4.021.4,7.224,3.2,7.734,6.742H198.846c.509-3.54,3.713-6.344,7.734-6.742M67.6,1.974H211.26a5.112,5.112,0,0,1,5.106,5.105V84.522H62.5V7.079A5.112,5.112,0,0,1,67.6,1.974M62.5,89.914v-3.42h153.87v3.42a5.112,5.112,0,0,1-5.106,5.106H67.6A5.112,5.112,0,0,1,62.5,89.914M39.943,87.67h1.882v1.665H39.943ZM43.8,91.214l5.678,21.677H43.8Zm2.038-7.433,7.437,28.392-1.82.477L44.016,84.258Zm-5.893-.241h1.882V85.7H39.943ZM37.97,92.048H31.648V86.142H37.97ZM21.964,84.155H16.227v-7.4h5.737Zm-5.737,1.973h5.737V109.5H16.227Zm7.71,5.18h5.737v12.519H23.938Zm5.737-1.973H23.938V72.745h5.737Zm-7.71-14.553H16.227v-5.8h5.737Zm-5.737,36.69h5.737v1.418H16.227Zm7.71-5.673h5.737v7.091H23.938Zm7.71-11.778H37.97V112.89H31.648Zm8.3-2.713h1.882V112.89H39.943Zm81.608,21.582A18.505,18.505,0,0,0,128.842,98.1V96.993H150.02V98.1a18.5,18.5,0,0,0,7.29,14.785Zm121.474,0a139.7,139.7,0,0,1-4.261-19.021h23.45a139.545,139.545,0,0,1-4.261,19.021Z"/></g></g><path class="d" d="M21.528-77.246h3.7v9.873h4.7v5.016H25.171v4.752l4.382.264v4.488H14.031v-4.329l3.273-.264q1.531-.106,1.531-1.478v-3.485H5.32v-4.382l9.926-20.854,5.016,2.481-8.5,17.792h7.55v-2.851Zm24.339-10.3q11.985,0,11.985,17.37,0,9.239-3.115,13.542t-9.239,4.3q-6.124,0-9.134-4.25T33.354-69.8q0-8.975,3.326-13.357A10.892,10.892,0,0,1,45.867-87.541Zm-4.62,27.427A4.74,4.74,0,0,0,45.6-57.4a4.838,4.838,0,0,0,4.408-2.8q1.557-2.8,1.557-9.741t-1.5-9.688a4.774,4.774,0,0,0-4.408-2.745,4.753,4.753,0,0,0-4.408,2.93q-1.5,2.93-1.5,9.767T41.247-60.114ZM78.072-77.246h3.7v9.873h4.7v5.016H81.715v4.752l4.382.264v4.488H70.575v-4.329l3.273-.264q1.531-.106,1.531-1.478v-3.485H61.864v-4.382L71.79-87.647l5.016,2.481-8.5,17.792h7.55v-2.851Z" transform="translate(753.025 417.636)"/></g></svg>